<?xml version="1.0" standalone="no"?>
<!DOCTYPE svg PUBLIC "-//W3C//DTD SVG 20010904//EN"
 "http://www.w3.org/TR/2001/REC-SVG-20010904/DTD/svg10.dtd">
<svg version="1.0" xmlns="http://www.w3.org/2000/svg"
 width="184.000000pt" height="70.000000pt" viewBox="0 0 184.000000 70.000000"
 preserveAspectRatio="xMidYMid meet">
<metadata>
Created by potrace 1.10, written by Peter Selinger 2001-2011
</metadata>
<g transform="translate(0.000000,70.000000) scale(0.100000,-0.100000)"
fill="#ea1b1b" stroke="none">
<path d="M0 350 l0 -340 910 0 910 0 0 340 0 340 -910 0 -910 0 0 -340z m1800
0 l0 -320 -890 0 -890 0 0 320 0 320 890 0 890 0 0 -320z"/>
<path d="M40 345 l0 -305 300 0 300 0 0 305 0 305 -300 0 -300 0 0 -305z m452
178 c136 -61 61 -192 -110 -193 l-63 0 3 -77 c3 -75 4 -78 28 -81 14 -2 29 -8
35 -13 5 -5 -46 -9 -130 -8 -130 0 -143 4 -82 23 15 5 17 22 17 175 0 180 0
181 -51 181 -10 0 -19 5 -19 11 0 8 46 10 163 7 136 -4 169 -8 209 -25z"/>
<path d="M320 436 c0 -47 3 -86 8 -86 34 0 80 24 90 46 28 60 2 111 -60 121
l-38 6 0 -87z"/>
<path d="M1290 527 l35 -12 3 -164 c3 -175 0 -187 -46 -194 -15 -2 29 -4 98
-4 69 0 112 2 95 6 l-30 6 -3 88 -3 88 83 -3 83 -3 3 -67 c3 -79 -7 -105 -45
-111 -16 -2 28 -4 97 -4 69 0 112 2 95 6 -38 8 -43 27 -44 186 -1 142 8 175
49 186 14 4 -31 7 -100 7 -86 0 -116 -2 -96 -8 40 -12 46 -25 46 -102 l0 -68
-85 0 -85 0 0 75 0 76 33 14 c30 13 23 14 -93 14 -110 0 -121 -2 -90 -12z"/>
<path d="M703 519 c15 -9 17 -28 17 -168 0 -164 -5 -185 -45 -194 -11 -3 14
-5 55 -5 41 0 66 3 55 5 -43 11 -45 19 -44 182 l1 156 85 -175 86 -174 29 59
c16 33 53 112 83 175 l54 115 -2 -165 -2 -165 -30 -6 c-16 -4 22 -7 85 -7 63
0 106 2 95 5 -40 9 -45 30 -45 187 0 153 3 168 30 179 8 3 -20 5 -64 4 l-78
-2 -57 -124 -56 -124 -60 126 -60 127 -75 0 c-56 -1 -71 -3 -57 -11z"/>
</g>
</svg>
